HIERARCHY
ROOT Hips
{
  OFFSET 28.529 81.0875 -151.188
  CHANNELS 6 Xposition Yposition Zposition Zrotation Xrotation Yrotation
  JOINT RightUpLeg
  {
    OFFSET -8.9458 -8.66707 0.101652
    CHANNELS 3 Zrotation Xrotation Yrotation
    JOINT RightLeg
    {
      OFFSET 0 -44.4227 1.3727
      CHANNELS 3 Zrotation Xrotation Yrotation
      JOINT RightFoot
      {
        OFFSET 0.253549 -42.0924 -1.46059
        CHANNELS 3 Zrotation Xrotation Yrotation
        JOINT RightToes
        {
          OFFSET 0.04 -4.41509 8.4991
          CHANNELS 3 Zrotation Xrotation Yrotation
          End Site
          {
            OFFSET -0.08 -0.137448 9.77979
          }
        }
      }
    }
  }
  JOINT Spine
  {
    OFFSET 0 11.8905 0
    CHANNELS 3 Zrotation Xrotation Yrotation
    JOINT Spine1
    {
      OFFSET 0 25.6574 0.127663
      CHANNELS 3 Zrotation Xrotation Yrotation
      JOINT HEad
      {
        OFFSET 0 8.73416 0.011341
        CHANNELS 3 Zrotation Xrotation Yrotation
        End Site
        {
          OFFSET -0.29 12.7742 2.51395
        }
      }
      JOINT LeftShoulder1
      {
        OFFSET 8.99 -0.362252 -0.22
        CHANNELS 3 Zrotation Xrotation Yrotation
        JOINT LeftArm
        {
          OFFSET 10.2827 -0.00338 0.322123
          CHANNELS 3 Zrotation Xrotation Yrotation
          JOINT LeftForeArm
          {
            OFFSET 32.7669 0.099144 -1.42434
            CHANNELS 3 Zrotation Xrotation Yrotation
            JOINT LeftHand
            {
              OFFSET 27.5643 0.085362 1.02216
              CHANNELS 3 Zrotation Xrotation Yrotation
              End Site
              {
                OFFSET 16.7443 -0.6 1.50291
              }
            }
          }
        }
      }
      JOINT RightShoulder
      {
        OFFSET -8.99 -0.362252 -0.22
        CHANNELS 3 Zrotation Xrotation Yrotation
        JOINT RightArm
        {
          OFFSET -10.2827 -0.00338 0.322123
          CHANNELS 3 Zrotation Xrotation Yrotation
          JOINT RightForeArm
          {
            OFFSET -32.8971 0.099144 -1.42434
            CHANNELS 3 Zrotation Xrotation Yrotation
            JOINT RightHand
            {
              OFFSET -27.4921 0.085362 1.02216
              CHANNELS 3 Zrotation Xrotation Yrotation
              End Site
              {
                OFFSET -16.6312 -0.6 1.50291
              }
            }
          }
        }
      }
    }
  }
  JOINT LeftUpLeg
  {
    OFFSET 8.9458 -8.66707 0.101652
    CHANNELS 3 Zrotation Xrotation Yrotation
    JOINT LeftLeg
    {
      OFFSET 0 -44.4227 1.3727
      CHANNELS 3 Zrotation Xrotation Yrotation
      JOINT LeftFoot
      {
        OFFSET -0.253549 -42.0924 -1.46059
        CHANNELS 3 Zrotation Xrotation Yrotation
        JOINT LeftToes
        {
          OFFSET -0.04 -4.41509 8.4991
          CHANNELS 3 Zrotation Xrotation Yrotation
          End Site
          {
            OFFSET 0.08 -0.047448 9.77979
          }
        }
      }
    }
  }
}
MOTION
Frames:	19
Frame Time:	0.0166667
10.9392 61.3648 -143.352 4.2119 -9.29364 19.5715 -40.3453 -55.1083 -32.7739 -76.202 70.8015 56.2866 -37.9497 25.0434 14.9491 0.0462048 0.000533403 0.662642 -11.854 43.6065 5.27869 -0.000283939 0.00783015 -0.00886623 3.22092 -7.1917 -9.37436 4.77083e-015 -3.18055e-015 -3.18055e-015 -100.214 -2.4935 -105.421 -17.7299 62.69 -81.6466 38.8511 6.05988 -22.2966 26.6576 12.0915 2.00628 70.7484 -28.7747 78.7924 16.7969 59.0391 113.98 -42.9382 18.3572 -2.64734 20.5969 -63.4802 17.1949 -14.5641 58.368 -21.1486 84.6742 37.3002 -30.9407 2.44436e-008 1.56001e-007 -4.85536e-009 
9.76845 59.574 -143.253 4.35252 -10.2262 20.965 -37.8101 -54.7209 -24.4363 -71.5919 73.3385 56.4855 -34.6096 27.301 14.1117 0.0462048 0.000533403 0.662642 -9.01699 44.9089 3.10922 -0.000351305 0.011317 -0.00782252 2.03611 -8.14165 -9.32963 1.59028e-015 1.27222e-014 3.18055e-015 -102.7 -7.13708 -106.727 -23.0867 63.0516 -79.8167 39.3754 6.16552 -22.3312 25.0107 12.4197 2.8137 71.5029 -29.7394 78.8598 18.6324 60.3679 111.876 -43.1272 18.3847 -2.3013 20.6454 -64.9312 16.5454 -14.9213 60.8365 -21.9283 85.0766 36.3394 -30.1758 2.44436e-008 1.56001e-007 -4.85536e-009 
8.55786 57.9189 -143.091 4.58304 -10.9237 22.0414 -34.8475 -54.5315 -14.7271 -66.1058 76.0598 56.0076 -26.3532 29.7871 11.4756 0.0462048 0.000533403 0.662642 -6.35401 45.5866 1.10632 -0.000572303 0.0156501 -0.00687473 0.793359 -8.81885 -9.15933 3.18055e-015 -9.54166e-015 -0 -104.829 -9.93022 -107.196 -25.786 63.586 -78.8343 39.9168 6.5885 -22.4942 23.2953 12.93 3.56235 72.0961 -30.5501 78.84 20.3404 61.4455 109.865 -43.1088 18.4493 -2.02742 20.9806 -66.2225 16.3449 -14.8478 62.9277 -22.814 85.0405 35.3526 -29.1993 2.44436e-008 1.56001e-007 -4.85536e-009 
6.82249 56.1465 -142.645 4.92989 -11.4301 22.8616 -32.4012 -55.099 -3.89202 -63.4772 80.7992 56.1827 -10.7529 32.0662 5.59602 0.0462048 0.000533403 0.662642 -3.98651 45.7749 -0.645362 -0.000897695 0.0183392 -0.00602899 -0.473001 -10.1792 -7.57988 -1.59028e-015 6.36111e-015 -0 -108.793 -15.1025 -107.893 -32.0707 64.9153 -76.7364 43.9371 25.2121 -21.3729 21.4468 13.4921 4.3988 72.5012 -31.1921 78.5785 21.5674 62.2871 108.266 -42.7974 18.6734 -1.97623 23.6562 -66.7824 17.6181 -16.4671 64.2468 -22.3214 84.3558 34.2353 -27.9616 2.44436e-008 1.56001e-007 -4.85536e-009 
4.78041 54.388 -141.928 5.3662 -11.7865 23.4547 -29.2035 -56.3726 6.73843 -66.4365 86.199 61.1075 -1.24127 33.3207 1.46383 0.0462048 0.000533403 0.662642 -1.99577 45.5898 -2.06384 -0.00127779 0.0202401 -0.00529141 -1.77765 -12.0821 -4.72891 -1.59028e-015 3.18055e-015 -0 -111.799 -18.1922 -107.784 -34.6854 66.1127 -76.0002 44.0667 15.2228 -22.5701 19.6248 14.1085 5.13348 72.7056 -31.5364 78.2125 22.3329 62.9187 107.077 -42.576 18.9438 -2.03615 28.3753 -66.9583 20.0741 -19.7237 65.2011 -20.2712 82.9443 32.9823 -26.4349 2.44436e-008 1.56001e-007 -4.85536e-009 
2.41885 52.7333 -140.929 5.87573 -12.0334 23.8498 -25.5076 -58.1196 17.4447 147.639 87.9472 -152.051 9.04637 33.7813 -3.02787 0.0462048 0.000533403 0.662642 -0.424571 45.1286 -3.09303 -0.00166302 0.0215458 -0.00466811 -2.98245 -13.5829 -2.07715 -1.59028e-015 3.18055e-015 3.18055e-015 -114.182 -20.2805 -106.954 -26.2333 65.7435 -80.9636 42.8792 16.0584 -22.7299 17.9229 14.7527 5.74726 72.7071 -31.561 77.7912 22.662 63.3572 106.209 -42.2273 19.2631 -2.25226 34.1803 -66.6567 22.89 -24.157 65.6083 -17.0013 80.8598 31.6712 -24.7258 2.44436e-008 1.56001e-007 -4.85536e-009 
-0.544591 51.1648 -139.599 6.47755 -12.2017 24.0925 -22.3047 -59.7397 26.2585 136.942 83.2167 -140.564 18.0645 33.7762 -6.98915 0.0462048 0.000533403 0.662642 0.783338 44.4606 -3.76075 -0.0021295 0.0224778 -0.00416518 -4.56781 -15.3256 1.67034 0 3.18055e-015 -0 -119.147 -25.1785 -106.814 -26.0562 67.3342 -83.2092 42.2877 7.79203 -24.2338 16.5442 15.3363 5.86713 70.5995 -27.3938 77.7798 20.1083 61.0795 105.037 -41.7426 19.6795 -2.54247 39.9933 -66.0617 25.0604 -25.3323 65.4615 -16.2028 76.3135 30.3057 -22.2489 2.44436e-008 1.56001e-007 -4.85536e-009 
-3.75732 49.694 -138.058 7.13709 -12.3178 24.2115 -19.2322 -61.5388 33.2418 139.26 78.97 -142.166 24.0519 33.6522 -9.75697 0.0462048 0.000533403 0.662642 1.65649 43.6468 -4.06947 -0.00318724 0.0231375 -0.00378876 -6.01433 -16.6485 5.06272 3.18055e-015 3.18055e-015 -0 -122.729 -28.451 -106.078 -25.3583 68.651 -85.3486 42.3337 9.67956 -23.7631 15.3562 15.9578 5.8879 68.9191 -24.8004 77.4433 18.3322 59.6876 104.773 -41.3186 20.1367 -3.10752 44.6042 -65.2964 25.5645 -24.3022 64.6694 -16.6172 70.1801 28.8926 -19.4798 2.44436e-008 1.56001e-007 -4.85536e-009 
-7.08872 48.2434 -136.313 7.84847 -12.3921 24.2359 -16.296 -63.5517 38.6529 143.456 75.1218 -145.884 28.4981 33.4449 -11.7663 0.0462048 0.000533403 0.662642 2.20956 42.7305 -4.0413 -0.00445966 0.0236264 -0.00354495 -7.34837 -17.5751 8.11435 -3.18055e-015 3.18055e-015 -0 -125.377 -30.9864 -104.934 -24.8846 69.5621 -87.0625 42.5168 5.73801 -24.8624 14.3486 16.6137 5.8394 67.5624 -23.0742 76.932 17.0058 58.8727 104.875 -40.7739 20.439 -3.7113 47.9376 -64.2753 24.5614 -25.2855 63.4713 -14.6682 64.5521 27.45 -17.1239 2.44436e-008 1.56001e-007 -4.85536e-009 
-10.863 46.9861 -134.368 8.6411 -12.4228 24.2128 -13.1953 -65.8463 42.8232 147.628 71.4263 -150.173 31.4968 33.3814 -13.1648 0.0462048 0.000533403 0.662642 2.51826 41.7338 -3.77082 -0.005885 0.024046 -0.00343986 -9.49777 -18.2692 11.9728 -0 0 3.18055e-015 -130.823 -36.2475 -105.064 -30.2958 72.0348 -86.1599 42.9148 7.44819 -24.4669 13.5024 17.2384 5.52277 64.4548 -18.1182 77.2169 14.3334 55.6354 103.676 -40.1086 20.5041 -4.28923 49.7065 -62.8964 21.8181 -22.8398 61.0351 -14.9413 57.0487 25.9949 -14.5206 2.44436e-008 1.56001e-007 -4.85536e-009 
-14.6073 45.8104 -132.281 9.48328 -12.4192 24.1724 -10.5333 -68.5245 45.3062 149.138 67.0748 -150.791 31.7771 33.5289 -13.7906 0.0462048 0.000533403 0.662642 2.61859 40.6773 -3.28992 -0.0074015 0.0244977 -0.00347961 -11.4733 -18.6322 15.4227 -1.59028e-015 3.18055e-015 -6.36111e-015 -134.511 -39.8938 -104.618 -34.4045 73.4365 -84.571 43.0351 5.45618 -25.4935 12.7139 17.8863 5.26313 62.261 -15.1631 77.0038 12.7367 53.83 103.261 -39.6541 20.7877 -4.82666 50.5905 -61.179 18.1918 -21.9387 58.5691 -13.371 49.96 24.3994 -12.2575 2.44436e-008 1.56001e-007 -4.85536e-009 
-18.2919 44.8987 -130.144 10.3807 -12.375 24.1417 -8.97183 -71.0302 45.677 151.917 63.8029 -153.75 31.5418 33.5285 -13.8698 0.0462048 0.000533403 0.662642 2.50476 39.5708 -2.61935 -0.00894738 0.025083 -0.00367031 -13.2894 -18.6734 18.4896 1.59028e-015 -3.18055e-015 -3.18055e-015 -136.838 -42.6517 -103.579 -37.4516 74.0626 -82.8664 43.1878 6.49099 -25.5539 12.0958 18.5558 5.02297 60.6354 -13.3702 76.5114 11.8237 52.9367 103.126 -39.1245 20.8644 -5.23575 50.7088 -58.9645 13.982 -21.1792 55.7196 -11.4385 42.8681 22.8155 -10.2718 2.44436e-008 1.56001e-007 -4.85536e-009 
-22.149 44.4403 -127.949 11.3703 -12.2619 24.1901 -9.00781 -73.1991 43.7331 154.277 61.1921 -157.443 30.4495 33.3053 -13.3838 0.0462048 0.000533403 0.662642 2.17384 38.395 -1.78427 -0.0104609 0.0259033 -0.00401808 -15.9735 -18.2369 22.1214 -0 -3.18055e-015 -0 -138.143 -45.0123 -101.705 -37.1105 70.4858 -80.863 39.558 3.70629 -29.1213 11.6692 19.1691 4.85654 59.2332 -12.3496 75.8483 11.5523 52.4002 102.99 -21.6439 11.6024 -3.31671 49.712 -55.7844 9.22234 -18.5607 50.7109 -9.58852 35.4026 21.2696 -8.36399 2.44436e-008 1.56001e-007 -4.85536e-009 
-25.7996 44.2374 -125.767 12.4206 -12.0827 24.3277 -11.2086 -74.7734 38.911 156.134 59.2509 -161.422 27.8008 32.723 -12.0904 0.0462048 0.000533403 0.662642 1.66109 37.1531 -0.803436 -0.0118802 0.0270601 -0.00452903 -18.3581 -17.5775 25.3215 -1.59028e-015 0 -0 -138.57 -47.061 -99.1613 -36.5058 68.8349 -80.6288 37.7853 3.54337 -30.6444 11.4413 19.8173 4.58469 57.9817 -11.7451 75.2729 11.7199 52.0559 102.716 -31.1983 14.9538 -5.03832 48.687 -52.2002 5.11753 -16.1073 46.1136 -7.60456 27.9837 19.5429 -6.68446 2.44436e-008 1.56001e-007 -4.85536e-009 
-29.2433 44.3158 -123.611 13.5227 -11.8378 24.5511 -15.3404 -75.5216 31.602 157.915 58.0411 -165.903 24.9526 31.5832 -10.4971 0.0462048 0.000533403 0.662642 0.968424 35.8532 0.316123 -0.0131904 0.0290202 -0.00610895 -20.4329 -16.7057 28.1152 -3.53113e-031 6.36111e-015 3.18055e-015 -138.243 -48.7954 -96.2211 -35.8963 68.1495 -81.1944 37.1813 2.92201 -31.7335 11.5299 20.516 4.12414 56.7907 -11.1674 74.8109 11.7995 52.0458 102.478 -25.0839 14.0249 -4.55789 47.5213 -48.1948 1.88782 -13.3082 41.4644 -6.12729 20.514 17.8318 -5.2557 2.44436e-008 1.56001e-007 -4.85536e-009 
-32.608 44.841 -121.463 14.6944 -11.5263 24.8885 -19.9912 -75.2405 23.3958 159.63 57.5575 -170.758 22.2695 29.8773 -8.76517 0.0462048 0.000533403 0.662642 -0.774013 35.4266 2.76155 -0.0672653 0.105199 0.0471443 -21.765 -16.3141 29.3946 -1.59028e-015 0 -3.18055e-015 -136.772 -48.8657 -93.3499 -35.2182 67.9481 -82.2061 37.2417 3.58552 -31.9002 12.5971 20.066 3.17584 55.7917 -10.8605 74.5472 11.8949 56.001 105.414 -34.5118 18.5018 -7.62583 46.0158 -44.0095 -0.0273599 -10.6489 36.7179 -3.37357 14.2262 16.0719 -4.14337 2.44436e-008 1.56001e-007 -4.85536e-009 
-35.6245 45.5048 -119.29 15.9313 -11.177 25.3341 -24.2902 -74.655 15.6245 161.339 55.9076 -175.755 19.7764 28.5871 -7.1826 0.0462048 0.000533403 0.662642 -3.3887 35.7013 6.26234 -0.0632962 0.104359 0.0380342 -22.5488 -16.2023 29.5139 1.59028e-015 0 6.36111e-015 -134.691 -47.6439 -90.8009 -34.5057 67.9481 -83.3079 37.4559 3.57207 -31.8917 14.4331 18.7959 1.69805 54.8617 -10.5092 74.4576 12.0782 57.8747 106.587 -32.6285 19.2341 -9.10665 45.5233 -40.8092 -0.0404623 -8.28474 34.4868 2.20703 -1.72714 14.9828 -2.71792 2.44436e-008 1.56001e-007 -4.85536e-009 
-38.2671 46.288 -117.166 17.2359 -10.7989 25.8991 -27.9801 -73.0842 8.62216 162.642 54.2341 179.631 17.8366 26.9976 -5.6696 0.0462048 0.000533403 0.662642 -5.73622 35.5942 9.36593 -0.00255172 0.0182805 -0.0203095 -23.3012 -15.5899 29.6809 0 0 -0 -132.674 -46.5082 -88.2775 -33.7876 68.023 -84.3502 37.7915 4.20291 -31.493 15.9736 17.9631 0.228273 54.042 -10.1217 74.4016 12.3024 58.5238 106.839 -37.1989 21.2082 -9.65767 45.0422 -37.5708 1.24218 -6.06339 32.0322 7.26608 -17.5667 13.9922 -1.39653 2.44436e-008 1.56001e-007 -4.85536e-009 
-40.8446 47.4637 -114.968 18.5817 -10.39 26.6295 -29.8087 -70.0677 3.23527 163.554 53.34 175.333 16.6654 24.8754 -4.3914 0.0462048 0.000533403 0.662642 -7.75286 35.1485 12.0237 0.00222805 0.0144806 -0.0227997 -23.9124 -14.6128 29.756 -1.59028e-015 0 -0 -130.668 -45.204 -85.9032 -33.0308 68.0896 -85.3142 38.0573 4.5725 -31.1502 17.4221 17.3265 -1.20888 53.3418 -9.69707 74.2266 12.3574 58.566 106.797 -35.9012 21.0727 -10.0004 43.6582 -36.0147 3.53559 -4.98929 33.5718 9.78328 -18.6753 11.0274 -1.89055 2.44436e-008 1.56001e-007 -4.85537e-009 
